<svg width="1024" height="512" viewBox="0 0 1024 512" fill="none" xmlns="http://www.w3.org/2000/svg">
<rect width="1024" height="512" fill="white"/>
<path d="M257.549 330.929C244.397 330.929 232.397 328.529 221.549 323.729C210.797 318.929 201.485 312.065 193.613 303.137C185.837 294.113 179.885 283.313 175.757 270.737L216.365 255.473C220.877 264.977 226.829 272.801 234.221 278.945C241.613 284.993 249.773 288.017 258.701 288.017C267.629 288.017 274.781 286.385 280.157 283.121C285.629 279.761 288.365 274.865 288.365 268.433C288.365 264.209 286.781 260.705 283.613 257.921C280.541 255.137 276.173 252.689 270.509 250.577C264.941 248.369 258.413 246.065 250.925 243.665C243.341 241.169 235.613 238.433 227.741 235.457C219.869 232.481 212.621 228.737 205.997 224.225C199.469 219.617 194.189 213.761 190.157 206.657C186.125 199.553 184.109 190.673 184.109 180.017C184.109 169.553 186.893 159.953 192.461 151.217C198.029 142.481 206.093 135.521 216.653 130.337C227.309 125.057 240.173 122.417 255.245 122.417C267.725 122.417 278.813 124.721 288.509 129.329C298.205 133.841 306.221 139.985 312.557 147.761C318.989 155.537 323.501 164.273 326.093 173.969L285.773 187.217C282.893 180.977 278.957 175.793 273.965 171.665C269.069 167.441 262.061 165.329 252.941 165.329C245.357 165.329 239.501 166.673 235.373 169.361C231.341 171.953 229.325 175.793 229.325 180.881C229.325 183.953 230.717 186.641 233.501 188.945C236.285 191.153 240.173 193.217 245.165 195.137C250.157 197.057 256.013 199.121 262.733 201.329C271.277 204.113 279.725 207.185 288.077 210.545C296.525 213.905 304.157 218.033 310.973 222.929C317.885 227.825 323.357 233.969 327.389 241.361C331.517 248.753 333.581 257.873 333.581 268.721C333.581 281.873 330.173 293.105 323.357 302.417C316.637 311.633 307.517 318.689 295.997 323.585C284.573 328.481 271.757 330.929 257.549 330.929ZM367.29 327.473V139.409L410.49 119.537V193.841C415.29 188.177 421.05 183.953 427.77 181.169C434.49 178.289 442.17 176.849 450.81 176.849C461.178 176.849 470.154 179.057 477.738 183.473C485.322 187.793 491.178 194.033 495.306 202.193C499.434 210.257 501.498 219.857 501.498 230.993V327.473H458.298V252.305C458.298 239.921 456.57 231.233 453.114 226.241C449.754 221.153 443.898 218.609 435.546 218.609C426.81 218.609 420.426 221.249 416.394 226.529C412.458 231.809 410.49 240.209 410.49 251.729V327.473H367.29ZM543.641 327.473V180.305H586.841V327.473H543.641ZM565.241 167.345C558.521 167.345 552.713 164.897 547.817 160.001C542.921 155.105 540.473 149.297 540.473 142.577C540.473 135.953 542.873 130.289 547.673 125.585C552.473 120.785 558.329 118.385 565.241 118.385C572.345 118.385 578.249 120.737 582.953 125.441C587.657 130.049 590.009 135.761 590.009 142.577C590.009 149.489 587.609 155.345 582.809 160.145C578.009 164.945 572.153 167.345 565.241 167.345ZM638.035 327.473V218.321H618.739V180.305H638.035V158.705C638.035 146.609 641.251 137.537 647.683 131.489C654.115 125.441 663.667 122.417 676.339 122.417C683.827 122.417 690.355 123.041 695.923 124.289C701.491 125.441 706.771 127.313 711.763 129.905V164.753C707.923 163.313 704.131 162.161 700.387 161.297C696.739 160.337 693.523 159.857 690.739 159.857C687.763 159.857 685.411 160.529 683.683 161.873C682.051 163.217 681.235 165.137 681.235 167.633V180.305H711.763V218.321H681.235V327.473H638.035ZM794.136 330.929C781.368 330.929 771.864 327.569 765.624 320.849C759.48 314.129 756.408 303.953 756.408 290.321V218.321H736.536V180.305H756.408V139.985L799.32 119.537V180.305H830.712V218.321H799.32V285.137C799.32 288.017 800.04 290.225 801.48 291.761C803.016 293.297 805.32 294.065 808.392 294.065C815.784 294.065 823.896 292.145 832.728 288.305L827.832 324.305C823.224 326.417 818.136 328.049 812.568 329.201C807.096 330.353 800.952 330.929 794.136 330.929Z" fill="black"/>
<path d="M777 433.109L856.373 389" stroke="black" stroke-width="24" stroke-linecap="round"/>
<path d="M155.8 388.473H856.6" stroke="black" stroke-width="24" stroke-linecap="round"/>
</svg>
