<svg width="726" height="364" viewBox="0 0 726 364" fill="none" xmlns="http://www.w3.org/2000/svg">
<path d="M114.549 248.929C101.397 248.929 89.3969 246.529 78.5489 241.729C67.7969 236.929 58.4849 230.065 50.6129 221.137C42.8369 212.113 36.8849 201.313 32.7569 188.737L73.3649 173.473C77.8769 182.977 83.8289 190.801 91.2209 196.945C98.6129 202.993 106.773 206.017 115.701 206.017C124.629 206.017 131.781 204.385 137.157 201.121C142.629 197.761 145.365 192.865 145.365 186.433C145.365 182.209 143.781 178.705 140.613 175.921C137.541 173.137 133.173 170.689 127.509 168.577C121.941 166.369 115.413 164.065 107.925 161.665C100.341 159.169 92.6129 156.433 84.7409 153.457C76.8689 150.481 69.6209 146.737 62.9969 142.225C56.4689 137.617 51.1889 131.761 47.1569 124.657C43.1249 117.553 41.1089 108.673 41.1089 98.0166C41.1089 87.5527 43.8929 77.9527 49.4609 69.2166C55.0289 60.4806 63.0929 53.5206 73.6529 48.3366C84.3089 43.0567 97.1729 40.4167 112.245 40.4167C124.725 40.4167 135.813 42.7207 145.509 47.3286C155.205 51.8406 163.221 57.9846 169.557 65.7607C175.989 73.5366 180.501 82.2726 183.093 91.9686L142.773 105.217C139.893 98.9767 135.957 93.7927 130.965 89.6647C126.069 85.4407 119.061 83.3286 109.941 83.3286C102.357 83.3286 96.5009 84.6726 92.3729 87.3606C88.3409 89.9526 86.3249 93.7926 86.3249 98.8807C86.3249 101.953 87.7169 104.641 90.5009 106.945C93.2849 109.153 97.1729 111.217 102.165 113.137C107.157 115.057 113.013 117.121 119.733 119.329C128.277 122.113 136.725 125.185 145.077 128.545C153.525 131.905 161.157 136.033 167.973 140.929C174.885 145.825 180.357 151.969 184.389 159.361C188.517 166.753 190.581 175.873 190.581 186.721C190.581 199.873 187.173 211.105 180.357 220.417C173.637 229.633 164.517 236.689 152.997 241.585C141.573 246.481 128.757 248.929 114.549 248.929ZM224.29 245.473V57.4086L267.49 37.5366V111.841C272.29 106.177 278.05 101.953 284.77 99.1687C291.49 96.2887 299.17 94.8487 307.81 94.8487C318.178 94.8487 327.154 97.0567 334.738 101.473C342.322 105.793 348.178 112.033 352.306 120.193C356.434 128.257 358.498 137.857 358.498 148.993V245.473H315.298V170.305C315.298 157.921 313.57 149.233 310.114 144.241C306.754 139.153 300.898 136.609 292.546 136.609C283.81 136.609 277.426 139.249 273.394 144.529C269.458 149.809 267.49 158.209 267.49 169.729V245.473H224.29ZM400.641 245.473V98.3046H443.841V245.473H400.641ZM422.241 85.3446C415.521 85.3446 409.713 82.8966 404.817 78.0006C399.921 73.1046 397.473 67.2966 397.473 60.5767C397.473 53.9527 399.873 48.2886 404.673 43.5846C409.473 38.7847 415.329 36.3847 422.241 36.3847C429.345 36.3847 435.249 38.7366 439.953 43.4406C444.657 48.0486 447.009 53.7607 447.009 60.5767C447.009 67.4887 444.609 73.3447 439.809 78.1446C435.009 82.9446 429.153 85.3446 422.241 85.3446ZM495.035 245.473V136.321H475.739V98.3046H495.035V76.7046C495.035 64.6086 498.251 55.5366 504.683 49.4886C511.115 43.4407 520.667 40.4167 533.339 40.4167C540.827 40.4167 547.355 41.0407 552.923 42.2887C558.491 43.4407 563.771 45.3126 568.763 47.9046V82.7527C564.923 81.3126 561.131 80.1606 557.387 79.2966C553.739 78.3367 550.523 77.8567 547.739 77.8567C544.763 77.8567 542.411 78.5286 540.683 79.8726C539.051 81.2166 538.235 83.1367 538.235 85.6327V98.3046H568.763V136.321H538.235V245.473H495.035ZM651.136 248.929C638.368 248.929 628.864 245.569 622.624 238.849C616.48 232.129 613.408 221.953 613.408 208.321V136.321H593.536V98.3046H613.408V57.9846L656.32 37.5366V98.3046H687.712V136.321H656.32V203.137C656.32 206.017 657.04 208.225 658.48 209.761C660.016 211.297 662.32 212.065 665.392 212.065C672.784 212.065 680.896 210.145 689.728 206.305L684.832 242.305C680.224 244.417 675.136 246.049 669.568 247.201C664.096 248.353 657.952 248.929 651.136 248.929Z" fill="black"/>
<path d="M634 351.109L713.373 307" stroke="black" stroke-width="24" stroke-linecap="round"/>
<path d="M12.7998 306.473H713.6" stroke="black" stroke-width="24" stroke-linecap="round"/>
</svg>
